<?xml version="1.0" encoding="UTF-8" standalone="no"?>
<svg
   width="24"
   height="24"
   viewBox="0 0 24 24"
   fill="none"
   stroke="currentColor"
   stroke-width="1.5"
   stroke-linecap="round"
   stroke-linejoin="round"
   class="icon icon-tabler icons-tabler-outline icon-tabler-umbrella"
   version="1.1"
   id="svg3"
   sodipodi:docname="umbrella.svg"
   inkscape:export-filename="umbrella-alert.png"
   inkscape:export-xdpi="4096"
   inkscape:export-ydpi="4096"
   xml:space="preserve"
   inkscape:version="1.3.2 (091e20e, 2023-11-25)"
   xmlns:inkscape="http://www.inkscape.org/namespaces/inkscape"
   xmlns:sodipodi="http://sodipodi.sourceforge.net/DTD/sodipodi-0.dtd"
   xmlns="http://www.w3.org/2000/svg"
   xmlns:svg="http://www.w3.org/2000/svg"><defs
     id="defs3" /><sodipodi:namedview
     id="namedview3"
     pagecolor="#ffffff"
     bordercolor="#000000"
     borderopacity="0.25"
     inkscape:showpageshadow="2"
     inkscape:pageopacity="0.0"
     inkscape:pagecheckerboard="0"
     inkscape:deskcolor="#d1d1d1"
     showgrid="false"
     inkscape:zoom="50.970614"
     inkscape:cx="14.792837"
     inkscape:cy="12.781875"
     inkscape:window-width="2688"
     inkscape:window-height="1576"
     inkscape:window-x="388"
     inkscape:window-y="120"
     inkscape:window-maximized="0"
     inkscape:current-layer="g3" /><path
     stroke="none"
     d="M0 0h24v24H0z"
     fill="none"
     id="path1" /><path
     d="m 21.521193,11.825093 a 9.5211936,9.5211936 0 0 0 -19.0423862,0 z"
     id="path2"
     style="fill:none;fill-opacity:1;stroke-width:1.12455;stroke-dasharray:none" /><path
     d="m 12.457622,12.172991 v 7.140894 a 2.3802984,2.3802984 0 0 1 -4.7605963,0"
     id="path3"
     style="stroke-width:1.12455;stroke-dasharray:none" /><g
     style="display:inline;fill:currentColor;stroke-width:0;stroke-dasharray:none;stroke:none;stroke-opacity:1"
     id="g3"
     transform="matrix(0.76375276,0,0,0.76375276,5.2325661,4.7447772)"><path
       d="m 10.454202,1.8143478 a 3.2682612,3.2044099 0 0 1 2.969897,-0.093342 l 0.186478,0.093342 6.649391,3.8443295 0.09422,0.060623 0.09029,0.074096 0.105014,0.07217 a 3.1642264,3.1024076 0 0 1 1.242528,2.1054802 l 0.01767,0.1943816 0.0049,0.1963062 v 7.0092867 c 0,1.064286 -0.559432,2.048704 -1.427041,2.591433 l -0.166849,0.09622 -6.676871,4.139752 c -0.90098,0.484992 -1.981568,0.514822 -2.948306,0.06544 L 10.403154,22.167636 3.83228,18.090434 a 3.165208,3.10337 0 0 1 -1.6399899,-2.52022 l -0.00688,-0.199192 V 8.3607742 c 0,-1.0642874 0.5594322,-2.0477429 1.4486347,-2.6029816 L 10.455179,1.8143478 Z m 1.555614,13.0736072 -0.12465,0.0067 a 0.98145981,0.96228524 0 0 0 0,1.911099 l 0.114831,0.0067 0.124651,-0.0067 a 0.98145981,0.96228524 0 0 0 0,-1.911099 z m -0.0098,-7.6982819 a 0.98145981,0.96228524 0 0 0 -0.974591,0.8496978 l -0.0068,0.1125873 V 12.0011 l 0.0068,0.112589 a 0.98145981,0.96228524 0 0 0 1.94918,0 l 0.0068,-0.112589 V 8.1519583 l -0.0068,-0.1125872 a 0.98145981,0.96228524 0 0 0 -0.97464,-0.849698 z"
       id="path2-4-2"
       style="display:inline;fill:#ffffff;fill-opacity:1;stroke:#ffffff;stroke-width:1.97945;stroke-dasharray:none;stroke-opacity:1"
       inkscape:label="background" /><path
       stroke="none"
       d="M 0,0 H 24 V 24 H 0 Z"
       fill="none"
       id="path1-8"
       style="stroke-width:0;stroke-dasharray:none;stroke:none;stroke-opacity:1" /><path
       d="m 10.425,1.414 a 3.33,3.33 0 0 1 3.026,-0.097 l 0.19,0.097 6.775,3.995 0.096,0.063 0.092,0.077 0.107,0.075 a 3.224,3.224 0 0 1 1.266,2.188 L 21.995,8.014 22,8.218 v 7.284 c 0,1.106 -0.57,2.129 -1.454,2.693 l -0.17,0.1 -6.803,4.302 c -0.918,0.504 -2.019,0.535 -3.004,0.068 l -0.196,-0.1 -6.695,-4.237 A 3.225,3.225 0 0 1 2.007,15.709 L 2,15.502 V 8.217 C 2,7.111 2.57,6.089 3.476,5.512 l 6.95,-4.098 z M 12.01,15 11.883,15.007 a 1,1 0 0 0 0,1.986 L 12,17 12.127,16.993 a 1,1 0 0 0 0,-1.986 z M 12,7 A 1,1 0 0 0 11.007,7.883 L 11,8 v 4 l 0.007,0.117 a 1,1 0 0 0 1.986,0 L 13,12 V 8 L 12.993,7.883 A 1,1 0 0 0 12,7 Z"
       id="path2-4"
       style="stroke-width:0;stroke-dasharray:none;stroke:none;stroke-opacity:1" /></g></svg>
